<?xml version="1.0" encoding="UTF-8" standalone="no"?>
<!DOCTYPE svg PUBLIC "-//W3C//DTD SVG 1.1//EN" "http://www.w3.org/Graphics/SVG/1.1/DTD/svg11.dtd">
<svg width="100%" height="100%" viewBox="0 0 808 142" version="1.1" xmlns="http://www.w3.org/2000/svg" xmlns:xlink="http://www.w3.org/1999/xlink" xml:space="preserve" xmlns:serif="http://www.serif.com/" style="fill-rule:evenodd;clip-rule:evenodd;stroke-linejoin:round;stroke-miterlimit:2;">
    <g transform="matrix(1,0,0,1,-39.3074,-34.0948)">
        <g id="Bono-Social-Salud" serif:id="Bono Social Salud">
            <g transform="matrix(1,0,0,1,-74,-15)">
                <g transform="matrix(194.05,0,0,194.05,99,188)">
                    <path d="M0.074,-0.716L0.488,-0.716C0.557,-0.716 0.61,-0.699 0.647,-0.665C0.684,-0.63 0.702,-0.588 0.702,-0.538C0.702,-0.495 0.689,-0.459 0.663,-0.429C0.645,-0.409 0.619,-0.393 0.585,-0.381C0.637,-0.368 0.675,-0.347 0.699,-0.317C0.723,-0.287 0.735,-0.249 0.735,-0.204C0.735,-0.167 0.727,-0.133 0.709,-0.104C0.692,-0.074 0.669,-0.05 0.639,-0.033C0.62,-0.022 0.592,-0.015 0.555,-0.01C0.505,-0.003 0.472,0 0.456,0L0.074,0L0.074,-0.716ZM0.297,-0.435L0.393,-0.435C0.428,-0.435 0.452,-0.441 0.465,-0.453C0.479,-0.465 0.485,-0.482 0.485,-0.504C0.485,-0.525 0.479,-0.542 0.465,-0.553C0.452,-0.565 0.428,-0.571 0.395,-0.571L0.297,-0.571L0.297,-0.435ZM0.297,-0.154L0.41,-0.154C0.448,-0.154 0.475,-0.161 0.49,-0.174C0.506,-0.188 0.514,-0.206 0.514,-0.229C0.514,-0.25 0.506,-0.267 0.49,-0.28C0.475,-0.292 0.448,-0.299 0.409,-0.299L0.297,-0.299L0.297,-0.154Z" style="fill-rule:nonzero;"/>
                </g>
                <g transform="matrix(194.05,0,0,194.05,249.939,188)">
                    <path d="M0.036,-0.258C0.036,-0.337 0.062,-0.402 0.116,-0.453C0.169,-0.505 0.241,-0.53 0.332,-0.53C0.436,-0.53 0.514,-0.5 0.567,-0.44C0.61,-0.391 0.631,-0.332 0.631,-0.261C0.631,-0.181 0.605,-0.116 0.552,-0.065C0.499,-0.014 0.426,0.012 0.333,0.012C0.249,0.012 0.182,-0.009 0.13,-0.052C0.067,-0.104 0.036,-0.173 0.036,-0.258ZM0.235,-0.258C0.235,-0.212 0.244,-0.178 0.263,-0.156C0.282,-0.134 0.305,-0.123 0.333,-0.123C0.362,-0.123 0.386,-0.133 0.404,-0.155C0.422,-0.177 0.432,-0.212 0.432,-0.26C0.432,-0.305 0.422,-0.339 0.404,-0.361C0.385,-0.383 0.362,-0.394 0.335,-0.394C0.306,-0.394 0.282,-0.382 0.263,-0.36C0.244,-0.338 0.235,-0.304 0.235,-0.258Z" style="fill-rule:nonzero;"/>
                </g>
                <g transform="matrix(194.05,0,0,194.05,379.369,188)">
                    <path d="M0.06,-0.519L0.245,-0.519L0.245,-0.434C0.273,-0.469 0.301,-0.493 0.329,-0.508C0.357,-0.523 0.392,-0.53 0.433,-0.53C0.488,-0.53 0.531,-0.514 0.562,-0.481C0.593,-0.448 0.608,-0.398 0.608,-0.33L0.608,0L0.409,0L0.409,-0.285C0.409,-0.318 0.403,-0.341 0.391,-0.354C0.379,-0.368 0.362,-0.375 0.34,-0.375C0.316,-0.375 0.296,-0.365 0.281,-0.347C0.266,-0.329 0.259,-0.296 0.259,-0.249L0.259,0L0.06,0L0.06,-0.519Z" style="fill-rule:nonzero;"/>
                </g>
                <g transform="matrix(194.05,0,0,194.05,508.799,188)">
                    <path d="M0.036,-0.258C0.036,-0.337 0.062,-0.402 0.116,-0.453C0.169,-0.505 0.241,-0.53 0.332,-0.53C0.436,-0.53 0.514,-0.5 0.567,-0.44C0.61,-0.391 0.631,-0.332 0.631,-0.261C0.631,-0.181 0.605,-0.116 0.552,-0.065C0.499,-0.014 0.426,0.012 0.333,0.012C0.249,0.012 0.182,-0.009 0.13,-0.052C0.067,-0.104 0.036,-0.173 0.036,-0.258ZM0.235,-0.258C0.235,-0.212 0.244,-0.178 0.263,-0.156C0.282,-0.134 0.305,-0.123 0.333,-0.123C0.362,-0.123 0.386,-0.133 0.404,-0.155C0.422,-0.177 0.432,-0.212 0.432,-0.26C0.432,-0.305 0.422,-0.339 0.404,-0.361C0.385,-0.383 0.362,-0.394 0.335,-0.394C0.306,-0.394 0.282,-0.382 0.263,-0.36C0.244,-0.338 0.235,-0.304 0.235,-0.258Z" style="fill-rule:nonzero;"/>
                </g>
            </g>
            <g transform="matrix(0.90049,0,0,0.950266,-8.76382,-41.0206)">
                <g transform="matrix(83.3333,0,0,83.3333,672.784,139.716)">
                    <path d="M0.035,-0.237L0.245,-0.25C0.25,-0.216 0.259,-0.19 0.273,-0.172C0.296,-0.143 0.328,-0.128 0.371,-0.128C0.402,-0.128 0.427,-0.136 0.444,-0.151C0.461,-0.165 0.469,-0.183 0.469,-0.202C0.469,-0.221 0.461,-0.237 0.445,-0.252C0.429,-0.267 0.391,-0.28 0.332,-0.293C0.235,-0.315 0.165,-0.344 0.124,-0.38C0.082,-0.417 0.062,-0.463 0.062,-0.519C0.062,-0.555 0.072,-0.59 0.094,-0.623C0.115,-0.656 0.147,-0.681 0.19,-0.7C0.233,-0.719 0.291,-0.728 0.366,-0.728C0.457,-0.728 0.527,-0.711 0.575,-0.677C0.623,-0.643 0.652,-0.589 0.661,-0.515L0.452,-0.502C0.447,-0.535 0.435,-0.558 0.417,-0.573C0.399,-0.587 0.375,-0.595 0.344,-0.595C0.318,-0.595 0.299,-0.589 0.286,-0.578C0.273,-0.567 0.266,-0.554 0.266,-0.539C0.266,-0.527 0.271,-0.517 0.282,-0.508C0.293,-0.498 0.317,-0.49 0.356,-0.481C0.453,-0.461 0.522,-0.44 0.564,-0.418C0.606,-0.397 0.636,-0.37 0.656,-0.339C0.675,-0.307 0.684,-0.272 0.684,-0.233C0.684,-0.187 0.671,-0.145 0.646,-0.106C0.621,-0.067 0.585,-0.038 0.54,-0.018C0.494,0.002 0.437,0.012 0.367,0.012C0.245,0.012 0.161,-0.011 0.114,-0.058C0.067,-0.105 0.041,-0.165 0.035,-0.237Z" style="fill-rule:nonzero;"/>
                </g>
                <g transform="matrix(1.11051,0,0,1.05234,9.73228,43.1675)">
                    <path d="M653.939,71.331C653.939,65.067 655.942,59.905 659.948,55.845C663.954,51.785 669.365,49.755 676.18,49.755C683.972,49.755 689.859,52.139 693.841,56.908C697.041,60.749 698.641,65.479 698.641,71.099C698.641,77.414 696.656,82.589 692.687,86.623C688.717,90.657 683.227,92.674 676.217,92.674C669.963,92.674 664.907,90.999 661.047,87.648C656.308,83.498 653.939,78.058 653.939,71.331ZM688.022,73.819C689.411,72.43 690.192,70.546 690.192,68.581C690.192,66.616 689.411,64.732 688.022,63.343C688.022,63.342 688.021,63.342 688.021,63.341C686.128,61.449 683.17,61.139 680.927,62.597C678.682,64.055 676.29,65.61 676.29,65.61C676.29,65.61 673.897,64.055 671.653,62.597C669.409,61.139 666.451,61.449 664.559,63.341C664.558,63.342 664.558,63.342 664.557,63.343C663.168,64.732 662.388,66.616 662.388,68.581C662.388,70.546 663.168,72.43 664.557,73.819L674.917,84.179C675.281,84.543 675.775,84.747 676.29,84.747C676.805,84.747 677.298,84.543 677.662,84.179L688.022,73.819Z" style="fill-rule:nonzero;"/>
                </g>
                <g transform="matrix(83.3333,0,0,83.3333,788.548,139.716)">
                    <path d="M0.447,-0.203L0.636,-0.182C0.625,-0.142 0.608,-0.108 0.584,-0.079C0.561,-0.051 0.53,-0.028 0.493,-0.012C0.456,0.004 0.41,0.012 0.353,0.012C0.298,0.012 0.252,0.007 0.215,-0.004C0.178,-0.014 0.147,-0.03 0.121,-0.053C0.094,-0.076 0.074,-0.103 0.059,-0.134C0.044,-0.165 0.036,-0.206 0.036,-0.257C0.036,-0.31 0.045,-0.355 0.063,-0.39C0.077,-0.416 0.095,-0.44 0.118,-0.46C0.141,-0.481 0.165,-0.496 0.189,-0.506C0.228,-0.522 0.278,-0.53 0.338,-0.53C0.423,-0.53 0.488,-0.515 0.532,-0.485C0.576,-0.455 0.608,-0.41 0.625,-0.352L0.438,-0.327C0.433,-0.349 0.422,-0.366 0.406,-0.377C0.391,-0.388 0.37,-0.394 0.344,-0.394C0.311,-0.394 0.285,-0.382 0.264,-0.359C0.244,-0.335 0.234,-0.299 0.234,-0.252C0.234,-0.209 0.244,-0.177 0.264,-0.155C0.284,-0.133 0.31,-0.122 0.341,-0.122C0.367,-0.122 0.389,-0.128 0.407,-0.142C0.425,-0.155 0.438,-0.175 0.447,-0.203Z" style="fill-rule:nonzero;"/>
                </g>
                <g transform="matrix(83.3333,0,0,83.3333,844.13,139.716)">
                    <path d="M0.067,-0.716L0.266,-0.716L0.266,-0.581L0.067,-0.581L0.067,-0.716ZM0.067,-0.519L0.266,-0.519L0.266,0L0.067,0L0.067,-0.519Z" style="fill-rule:nonzero;"/>
                </g>
                <g transform="matrix(83.3333,0,0,83.3333,871.881,139.716)">
                    <path d="M0.241,-0.351L0.051,-0.371C0.058,-0.404 0.069,-0.43 0.082,-0.449C0.096,-0.468 0.115,-0.485 0.141,-0.499C0.159,-0.509 0.184,-0.516 0.216,-0.522C0.248,-0.528 0.282,-0.53 0.319,-0.53C0.379,-0.53 0.427,-0.527 0.463,-0.52C0.499,-0.514 0.529,-0.5 0.553,-0.479C0.57,-0.464 0.583,-0.443 0.593,-0.416C0.603,-0.389 0.608,-0.364 0.608,-0.339L0.608,-0.11C0.608,-0.086 0.609,-0.067 0.613,-0.053C0.616,-0.039 0.622,-0.021 0.633,0L0.446,0C0.439,-0.013 0.434,-0.024 0.432,-0.031C0.429,-0.038 0.427,-0.049 0.425,-0.063C0.399,-0.038 0.373,-0.021 0.347,-0.01C0.312,0.005 0.271,0.012 0.225,0.012C0.163,0.012 0.116,-0.003 0.084,-0.031C0.052,-0.06 0.036,-0.095 0.036,-0.137C0.036,-0.177 0.047,-0.209 0.07,-0.234C0.093,-0.26 0.136,-0.279 0.198,-0.291C0.273,-0.306 0.321,-0.316 0.343,-0.323C0.365,-0.329 0.389,-0.336 0.414,-0.346C0.414,-0.371 0.409,-0.388 0.398,-0.397C0.388,-0.407 0.371,-0.412 0.345,-0.412C0.313,-0.412 0.288,-0.407 0.272,-0.396C0.259,-0.388 0.249,-0.373 0.241,-0.351ZM0.414,-0.246C0.386,-0.236 0.358,-0.228 0.328,-0.22C0.288,-0.209 0.262,-0.199 0.251,-0.188C0.24,-0.178 0.235,-0.166 0.235,-0.152C0.235,-0.136 0.24,-0.123 0.251,-0.114C0.262,-0.104 0.278,-0.099 0.299,-0.099C0.321,-0.099 0.342,-0.104 0.361,-0.115C0.38,-0.125 0.394,-0.139 0.402,-0.154C0.41,-0.17 0.414,-0.19 0.414,-0.214L0.414,-0.246Z" style="fill-rule:nonzero;"/>
                </g>
                <g transform="matrix(83.3333,0,0,83.3333,927.464,139.716)">
                    <rect x="0.067" y="-0.716" width="0.199" height="0.716" style="fill-rule:nonzero;"/>
                </g>
            </g>
            <g transform="matrix(1,0,0,1.05528,-76,26.7619)">
                <g transform="matrix(83.3333,0,0,83.3333,672.784,139.716)">
                    <path d="M0.035,-0.237L0.245,-0.25C0.25,-0.216 0.259,-0.19 0.273,-0.172C0.296,-0.143 0.328,-0.128 0.371,-0.128C0.402,-0.128 0.427,-0.136 0.444,-0.151C0.461,-0.165 0.469,-0.183 0.469,-0.202C0.469,-0.221 0.461,-0.237 0.445,-0.252C0.429,-0.267 0.391,-0.28 0.332,-0.293C0.235,-0.315 0.165,-0.344 0.124,-0.38C0.082,-0.417 0.062,-0.463 0.062,-0.519C0.062,-0.555 0.072,-0.59 0.094,-0.623C0.115,-0.656 0.147,-0.681 0.19,-0.7C0.233,-0.719 0.291,-0.728 0.366,-0.728C0.457,-0.728 0.527,-0.711 0.575,-0.677C0.623,-0.643 0.652,-0.589 0.661,-0.515L0.452,-0.502C0.447,-0.535 0.435,-0.558 0.417,-0.573C0.399,-0.587 0.375,-0.595 0.344,-0.595C0.318,-0.595 0.299,-0.589 0.286,-0.578C0.273,-0.567 0.266,-0.554 0.266,-0.539C0.266,-0.527 0.271,-0.517 0.282,-0.508C0.293,-0.498 0.317,-0.49 0.356,-0.481C0.453,-0.461 0.522,-0.44 0.564,-0.418C0.606,-0.397 0.636,-0.37 0.656,-0.339C0.675,-0.307 0.684,-0.272 0.684,-0.233C0.684,-0.187 0.671,-0.145 0.646,-0.106C0.621,-0.067 0.585,-0.038 0.54,-0.018C0.494,0.002 0.437,0.012 0.367,0.012C0.245,0.012 0.161,-0.011 0.114,-0.058C0.067,-0.105 0.041,-0.165 0.035,-0.237Z" style="fill-rule:nonzero;"/>
                </g>
                <g transform="matrix(83.3333,0,0,83.3333,732.965,139.716)">
                    <path d="M0.241,-0.351L0.051,-0.371C0.058,-0.404 0.069,-0.43 0.082,-0.449C0.096,-0.468 0.115,-0.485 0.141,-0.499C0.159,-0.509 0.184,-0.516 0.216,-0.522C0.248,-0.528 0.282,-0.53 0.319,-0.53C0.379,-0.53 0.427,-0.527 0.463,-0.52C0.499,-0.514 0.529,-0.5 0.553,-0.479C0.57,-0.464 0.583,-0.443 0.593,-0.416C0.603,-0.389 0.608,-0.364 0.608,-0.339L0.608,-0.11C0.608,-0.086 0.609,-0.067 0.613,-0.053C0.616,-0.039 0.622,-0.021 0.633,0L0.446,0C0.439,-0.013 0.434,-0.024 0.432,-0.031C0.429,-0.038 0.427,-0.049 0.425,-0.063C0.399,-0.038 0.373,-0.021 0.347,-0.01C0.312,0.005 0.271,0.012 0.225,0.012C0.163,0.012 0.116,-0.003 0.084,-0.031C0.052,-0.06 0.036,-0.095 0.036,-0.137C0.036,-0.177 0.047,-0.209 0.07,-0.234C0.093,-0.26 0.136,-0.279 0.198,-0.291C0.273,-0.306 0.321,-0.316 0.343,-0.323C0.365,-0.329 0.389,-0.336 0.414,-0.346C0.414,-0.371 0.409,-0.388 0.398,-0.397C0.388,-0.407 0.371,-0.412 0.345,-0.412C0.313,-0.412 0.288,-0.407 0.272,-0.396C0.259,-0.388 0.249,-0.373 0.241,-0.351ZM0.414,-0.246C0.386,-0.236 0.358,-0.228 0.328,-0.22C0.288,-0.209 0.262,-0.199 0.251,-0.188C0.24,-0.178 0.235,-0.166 0.235,-0.152C0.235,-0.136 0.24,-0.123 0.251,-0.114C0.262,-0.104 0.278,-0.099 0.299,-0.099C0.321,-0.099 0.342,-0.104 0.361,-0.115C0.38,-0.125 0.394,-0.139 0.402,-0.154C0.41,-0.17 0.414,-0.19 0.414,-0.214L0.414,-0.246Z" style="fill-rule:nonzero;"/>
                </g>
                <g transform="matrix(83.3333,0,0,83.3333,788.548,139.716)">
                    <rect x="0.067" y="-0.716" width="0.199" height="0.716" style="fill-rule:nonzero;"/>
                </g>
                <g transform="matrix(83.3333,0,0,83.3333,816.298,139.716)">
                    <path d="M0.606,0L0.421,0L0.421,-0.084C0.393,-0.049 0.365,-0.025 0.337,-0.01C0.309,0.004 0.274,0.012 0.233,0.012C0.179,0.012 0.136,-0.005 0.105,-0.037C0.074,-0.07 0.058,-0.12 0.058,-0.188L0.058,-0.519L0.258,-0.519L0.258,-0.233C0.258,-0.201 0.264,-0.178 0.276,-0.164C0.288,-0.15 0.305,-0.144 0.327,-0.144C0.35,-0.144 0.37,-0.153 0.385,-0.171C0.4,-0.189 0.408,-0.222 0.408,-0.269L0.408,-0.519L0.606,-0.519L0.606,0Z" style="fill-rule:nonzero;"/>
                </g>
                <g transform="matrix(83.3333,0,0,83.3333,871.881,139.716)">
                    <path d="M0.606,-0.716L0.606,0L0.42,0L0.42,-0.077C0.394,-0.044 0.37,-0.022 0.349,-0.011C0.32,0.004 0.288,0.012 0.253,0.012C0.182,0.012 0.128,-0.015 0.091,-0.069C0.054,-0.123 0.035,-0.188 0.035,-0.265C0.035,-0.351 0.056,-0.416 0.097,-0.462C0.138,-0.507 0.19,-0.53 0.254,-0.53C0.285,-0.53 0.313,-0.525 0.338,-0.515C0.363,-0.504 0.386,-0.489 0.405,-0.468L0.405,-0.716L0.606,-0.716ZM0.407,-0.261C0.407,-0.301 0.398,-0.332 0.381,-0.352C0.364,-0.372 0.342,-0.382 0.315,-0.382C0.292,-0.382 0.273,-0.372 0.257,-0.353C0.242,-0.334 0.234,-0.302 0.234,-0.256C0.234,-0.214 0.242,-0.183 0.258,-0.163C0.274,-0.144 0.294,-0.134 0.318,-0.134C0.343,-0.134 0.364,-0.144 0.381,-0.164C0.398,-0.183 0.407,-0.216 0.407,-0.261Z" style="fill-rule:nonzero;"/>
                </g>
            </g>
        </g>
    </g>
</svg>
